<svg width="1512" height="946" viewBox="0 0 1512 946" fill="none" xmlns="http://www.w3.org/2000/svg">
    <g opacity="0.5">
        <path d="M1421.78 1336.58C1440.15 1232.42 1266.84 1177.7 1111.86 1114.73C1035.64 1083.47 964.68 1049.31 920.889 1006C790.006 873.428 933.854 812.656 737.414 647.986C694.385 611.963 569.491 579.671 418.274 546.231C82.8635 471.513 -314.838 381.226 -484.237 305.226C-497.892 299.479 -509.719 293.786 -519.716 288.145C-694.748 191.348 -668.172 83.9861 -811.433 -2.71668C-843.879 -22.0017 -884.443 -39.9943 -937.9 -56.4518C-1117.01 -112.484 -1302.91 -164.51 -1488 -218.041" stroke="url(#paint0_linear_18_285)" stroke-width="0.910388" stroke-miterlimit="10"/>
        <path d="M1499.98 1309.4C1519.67 1205.52 1347.93 1151.03 1192.8 1088.2C1116.5 1057.02 1046.22 1023.32 1002.52 980.032C872.235 848.659 1010.74 785.179 808.754 626.189C763.54 590.891 636.183 559.436 485.379 526.565C145.23 452.868 -239.494 359.956 -406.685 281.494C-419.232 275.408 -431.066 269.725 -441.064 264.093C-612.059 166.782 -588.499 59.1845 -731.752 -27.4114C-764.198 -46.6719 -805.509 -65.0307 -857.928 -81.7851C-1036.19 -137.986 -1223.51 -189.466 -1410.33 -243.61" stroke="url(#paint1_linear_18_285)" stroke-width="0.910388" stroke-miterlimit="10"/>
        <path d="M1578.85 1282.33C1597.87 1178.71 1428.91 1124.05 1274.37 1061.73C1198.74 1030.99 1127.7 996.935 1084.79 954.061C952.764 824.585 1087.55 758.519 880.289 604.445C833.269 569.117 704.203 538.868 551.644 507.225C206.908 434.457 -164.956 339.525 -331.303 257.747C-343.856 251.67 -355.695 245.994 -365.694 240.367C-531.495 142.143 -512.267 34.7053 -656.23 -52.2154C-689.39 -71.8601 -728.887 -90.1431 -782.487 -106.506C-961.657 -162.979 -1148.09 -214.668 -1335.13 -268.671" stroke="url(#paint2_linear_18_285)" stroke-width="0.910388" stroke-miterlimit="10"/>
        <path d="M1657.23 1255.12C1677.57 1151.78 1508.37 1097.28 1355.51 1035.15C1279.8 1004.48 1210.57 970.536 1166.61 928.031C1035.15 799.763 1163.46 731.359 951.605 582.654C901.648 547.662 770.787 518.663 618.624 487.59C269.072 415.865 -89.614 318.233 -253.679 233.973C-266.24 227.906 -276.955 221.885 -286.957 216.266C-447.945 117.905 -433.616 10.2013 -576.445 -76.968C-608.476 -96.9425 -649.132 -114.837 -701.685 -131.5C-879.996 -188.146 -1068.59 -239.69 -1255.94 -293.5" stroke="url(#paint3_linear_18_285)" stroke-width="0.910388" stroke-miterlimit="10"/>
        <path d="M1736.4 1227.65C1756.94 1124.94 1590.47 1070.3 1437.45 1008.31C1362.37 978.117 1293.1 944.227 1249.23 901.74C1117.2 775.035 1240.15 703.947 1024.32 561.035C971.409 526.387 838.724 498.645 686.951 468.144C330.682 397.433 -12.8687 297.105 -174.613 210.352C-186.046 203.939 -197.9 198.284 -206.768 192.316C-363.627 93.4043 -352.372 -14.5116 -495.194 -101.577C-527.222 -121.528 -568.626 -139.786 -620.124 -156.753C-798.286 -213.976 -987.216 -265.32 -1176.02 -318.579" stroke="url(#paint4_linear_18_285)" stroke-width="0.910388" stroke-miterlimit="10"/>
        <path d="M1815.18 1200.49C1835.81 1098.44 1670.27 1043.58 1518.98 981.748C1444.97 951.255 1376.38 917.813 1331.44 875.697C1198.77 750.551 1315.8 677.586 1095.62 539.3C1040.87 504.64 905.24 478.494 752.77 448.891C391.724 379.184 61.2438 276.771 -97.7067 186.734C-109.142 180.328 -119.862 174.323 -128.728 168.36C-281.433 68.8661 -273.802 -38.4748 -416.195 -126.213C-448.22 -146.146 -489.656 -164.374 -541.216 -181.299C-718.462 -238.732 -908.811 -289.554 -1099.31 -343.451" stroke="url(#paint5_linear_18_285)" stroke-width="0.910388" stroke-miterlimit="10"/>
        <path d="M1893.7 1173.25C1915.68 1071.47 1751.03 1016.41 1600.29 955.124C1526.2 924.7 1457.57 891.318 1413.42 849.62C1280.14 726.046 1390.67 650.77 1166.79 517.56C1109.03 483.258 972.662 458.029 819.413 429.361C453.389 360.752 135.257 255.885 -20.1429 162.973C-31.5808 156.576 -42.3035 150.579 -51.1657 144.623C-199.679 44.5553 -195.151 -62.985 -338.251 -151.019C-370.988 -171.328 -411.315 -189.878 -462.24 -206.35C-639.331 -264.361 -830.037 -314.977 -1020.88 -368.671" stroke="url(#paint6_linear_18_285)" stroke-width="0.910388" stroke-miterlimit="10"/>
        <path d="M1973.09 1145.95C1994.44 1044.42 1832.61 989.181 1682.44 928.408C1609.01 898.44 1540.33 865.105 1495.1 823.782C1361.57 701.014 1464.3 623.84 1237.35 496.092C1176.58 462.149 1038.36 438.174 884.381 410.414C513.486 342.84 209.038 235.063 56.0891 139.604C45.7994 132.853 35.0741 126.863 26.2145 120.911C-117.372 20.6397 -116.787 -87.4715 -259.882 -175.42C-292.617 -195.71 -332.972 -214.23 -384.678 -231.059C-561.56 -289.682 -753.716 -339.766 -944.844 -393.292" stroke="url(#paint7_linear_18_285)" stroke-width="0.910388" stroke-miterlimit="10"/>
        <path d="M2131.4 1091.3C2154.17 990.691 1994.94 935.412 1846.34 874.924C1773.47 845.477 1705.87 811.883 1660.33 771.357C1525.43 651.738 1613.73 570.418 1380.16 452.507C1314.44 418.946 1170.52 397.484 1016.87 371.607C634.82 306.567 357.556 193.659 211.232 91.9571C200.947 85.2189 191.377 78.8792 183.684 72.5729C49.7836 -29.2928 41.6235 -137.01 -100.306 -225.139C-133.038 -245.387 -174.17 -264.243 -224.862 -281.341C-400.632 -340.772 -594.623 -390.117 -788.975 -443.71" stroke="url(#paint8_linear_18_285)" stroke-width="0.910388" stroke-miterlimit="10"/>
        <path d="M2051.67 1118.69C2074.38 1017.42 1913.02 962.747 1763.84 901.752C1690.32 871.853 1623.46 838.613 1577.16 797.673C1442.98 676.483 1538.01 597.388 1308.35 474.39C1245.69 440.459 1103.66 417.736 950.742 390.955C573.618 324.87 283.603 214.597 133.589 115.835C123.302 109.091 113.73 102.746 104.873 96.8003C-33.3 -4.43365 -38.165 -112.002 -180.1 -200.209C-212.833 -220.476 -253.223 -238.962 -303.855 -256.1C-479.856 -314.907 -673.544 -364.417 -866.455 -418.536" stroke="url(#paint9_linear_18_285)" stroke-width="0.910388" stroke-miterlimit="10"/>
    </g>
    <defs>
        <linearGradient id="paint0_linear_18_285" x1="-87.6855" y1="576.404" x2="83.9115" y2="272.269" gradientUnits="userSpaceOnUse">
            <stop stop-color="white"/>
            <stop offset="1"/>
        </linearGradient>
        <linearGradient id="paint1_linear_18_285" x1="-9.98766" y1="550.421" x2="157.688" y2="252.775" gradientUnits="userSpaceOnUse">
            <stop stop-color="white"/>
            <stop offset="1"/>
        </linearGradient>
        <linearGradient id="paint2_linear_18_285" x1="68.5753" y1="524.192" x2="232.198" y2="233.41" gradientUnits="userSpaceOnUse">
            <stop stop-color="white"/>
            <stop offset="1"/>
        </linearGradient>
        <linearGradient id="paint3_linear_18_285" x1="146.41" y1="498.159" x2="306.131" y2="213.865" gradientUnits="userSpaceOnUse">
            <stop stop-color="white"/>
            <stop offset="1"/>
        </linearGradient>
        <linearGradient id="paint4_linear_18_285" x1="223.866" y1="472.233" x2="379.698" y2="194.418" gradientUnits="userSpaceOnUse">
            <stop stop-color="white"/>
            <stop offset="1"/>
        </linearGradient>
        <linearGradient id="paint5_linear_18_285" x1="302.192" y1="446.041" x2="454.061" y2="174.933" gradientUnits="userSpaceOnUse">
            <stop stop-color="white"/>
            <stop offset="1"/>
        </linearGradient>
        <linearGradient id="paint6_linear_18_285" x1="380.049" y1="420.007" x2="528.061" y2="155.346" gradientUnits="userSpaceOnUse">
            <stop stop-color="white"/>
            <stop offset="1"/>
        </linearGradient>
        <linearGradient id="paint7_linear_18_285" x1="458.918" y1="393.687" x2="602.999" y2="135.698" gradientUnits="userSpaceOnUse">
            <stop stop-color="white"/>
            <stop offset="1"/>
        </linearGradient>
        <linearGradient id="paint8_linear_18_285" x1="614.826" y1="341.532" x2="751.408" y2="96.2306" gradientUnits="userSpaceOnUse">
            <stop stop-color="white"/>
            <stop offset="1"/>
        </linearGradient>
        <linearGradient id="paint9_linear_18_285" x1="536.782" y1="367.634" x2="677.084" y2="115.986" gradientUnits="userSpaceOnUse">
            <stop stop-color="white"/>
            <stop offset="1"/>
        </linearGradient>
    </defs>
</svg>
