<svg width="3213" height="4059" viewBox="0 0 3213 4059" fill="none" xmlns="http://www.w3.org/2000/svg">
    <g opacity="0.5">
        <path d="M637.364 2971.13C747.769 3003.89 801.383 2822.33 864.151 2661.69C895.325 2582.73 929.69 2509.84 974.359 2467.59C1111.19 2341.7 1178.79 2505.45 1347.93 2312.28C1384.93 2269.97 1416.03 2138.25 1447.71 1978.07C1518.56 1622.85 1604.35 1201.88 1680.53 1027.18C1686.27 1013.05 1691.99 1000.9 1697.71 990.735C1795.71 812.477 1909.69 854.554 1997.79 709.572C2017.37 676.693 2035.4 634.836 2051.49 578.781C2106.35 391.074 2156.83 195.508 2208.91 0.999907" stroke="url(#paint0_linear_18_263)" stroke-width="0.910388" stroke-miterlimit="10"/>
        <path d="M667.929 3059.42C778.067 3093.59 831.48 2913.71 894.092 2752.89C925.19 2673.84 959.081 2601.62 1003.73 2559.47C1139.31 2434.08 1209.64 2592.37 1372.65 2392.47C1408.83 2347.69 1438.99 2213.19 1470.08 2053.4C1539.74 1692.91 1628.61 1286.35 1707.44 1114.36C1713.56 1101.47 1719.28 1089.31 1724.99 1079.14C1823.62 905.335 1937.78 944.165 2025.77 799.179C2045.33 766.297 2063.72 723.672 2080.15 668.783C2135.21 482.022 2185.08 284.835 2237.76 88.5237" stroke="url(#paint1_linear_18_263)" stroke-width="0.910388" stroke-miterlimit="10"/>
        <path d="M698.398 3148.45C808.241 3181.85 861.908 3005.01 924 2844.78C954.635 2766.38 988.888 2693.4 1033.12 2652.04C1166.65 2524.53 1239.63 2679.1 1397.32 2472.87C1433.49 2426.13 1462.33 2289.62 1492.09 2127.77C1560.65 1762.18 1651.96 1369.84 1734.31 1199.17C1740.43 1186.28 1746.14 1174.12 1751.84 1163.95C1851.56 995.894 1965.45 1030 2053.76 884.28C2073.71 850.669 2092.07 810.006 2108.06 753.786C2163.38 566.072 2213.49 369.88 2266.02 173.311" stroke="url(#paint2_linear_18_263)" stroke-width="0.910388" stroke-miterlimit="10"/>
        <path d="M729.005 3236.94C838.586 3271.76 892.069 3094.62 954.001 2936.2C984.56 2857.71 1018.74 2786.67 1062.56 2744.14C1194.83 2617.1 1270.12 2764.91 1422.03 2553.03C1457.78 2503.05 1485.26 2364.45 1514.42 2202.95C1581.77 1832 1676.25 1454.32 1761.27 1286.43C1767.38 1273.53 1773.48 1262.63 1779.17 1252.46C1879.15 1089.65 1993.2 1118.46 2081.81 974.007C2102.13 941.663 2120.04 899.694 2136.38 844.647C2191.91 657.889 2241.81 459.325 2294.13 262.397" stroke="url(#paint3_linear_18_263)" stroke-width="0.910388" stroke-miterlimit="10"/>
        <path d="M759.901 3326.33C868.821 3361.29 922.519 3187.14 984.297 3028.52C1014.37 2950.67 1048.49 2879.57 1092.3 2837.14C1222.9 2709.27 1300.89 2851.6 1446.6 2634.69C1481.91 2581.46 1508.02 2440.72 1536.58 2279.58C1602.7 1901.21 1700.39 1540.3 1788.1 1375.24C1794.6 1363.61 1800.29 1351.42 1806.37 1342.52C1907.04 1184.27 2021.24 1209.77 2109.73 1065.31C2130.03 1032.97 2148.31 990.227 2164.99 936.364C2221.14 749.838 2270.82 550.89 2322.52 352.316" stroke="url(#paint4_linear_18_263)" stroke-width="0.910388" stroke-miterlimit="10"/>
        <path d="M790.454 3415.27C898.687 3450.24 952.64 3277.14 1014.29 3120.37C1044.71 3043.71 1078.37 2973.3 1121.76 2929.66C1250.7 2800.91 1330.53 2937.03 1471.25 2714.83C1506.53 2659.6 1530.89 2515.46 1558.49 2353.45C1623.43 1969.77 1723.63 1623.32 1814.88 1461.7C1821.37 1450.06 1827.45 1439.15 1833.53 1430.26C1934.91 1276.59 2048.42 1298.08 2137.63 1154.17C2157.91 1121.83 2176.16 1079.05 2192.79 1025.11C2249.18 839.608 2298.28 639.054 2350.61 438.712" stroke="url(#paint5_linear_18_263)" stroke-width="0.910388" stroke-miterlimit="10"/>
        <path d="M821.096 3503.93C929.077 3540.32 983.254 3368.22 1044.35 3211.98C1074.69 3135.23 1108.29 3064.77 1151.25 3021.94C1278.52 2892.32 1360.64 3021.67 1495.91 2794.82C1530.74 2736.28 1554.11 2591.23 1580.7 2428.26C1644.37 2039.03 1747.46 1706.3 1841.82 1548.89C1848.3 1537.25 1854.38 1526.34 1860.45 1517.44C1962.54 1368.4 2076.18 1386.54 2165.69 1241.9C2186.35 1208.83 2204.96 1167.3 2221.13 1114C2278.14 928.732 2327 727.764 2379.12 527.027" stroke="url(#paint6_linear_18_263)" stroke-width="0.910388" stroke-miterlimit="10"/>
        <path d="M851.818 3593.54C959.518 3629.23 1013.96 3460.2 1074.52 3304.52C1104.4 3228.42 1137.95 3157.91 1180.49 3113.85C1306.9 2983.88 1390.83 3104.98 1520.26 2874.12C1554.64 2812.27 1576.64 2665.05 1602.26 2501.18C1664.71 2106.53 1771.2 1789.02 1868.32 1634.59C1875.2 1624.24 1881.27 1613.32 1887.34 1604.43C1989.76 1460.76 2103.91 1474.69 2193.33 1330.04C2213.96 1296.97 2232.55 1255.41 2249.08 1201.3C2306.73 1016.34 2355 813.732 2406.93 612.665" stroke="url(#paint7_linear_18_263)" stroke-width="0.910388" stroke-miterlimit="10"/>
        <path d="M913.303 3772.26C1020.07 3809.37 1074.61 3643.17 1134.91 3489.16C1164.25 3413.62 1198.1 3344.3 1239.79 3299.82C1362.84 3167.96 1450.81 3273.9 1569.7 3034.64C1603.55 2967.36 1622.76 2813.65 1646.4 2649.89C1705.92 2242.81 1818.47 1955.47 1922.34 1809C1929.2 1798.66 1935.67 1789.04 1942.14 1781.46C2046.48 1648.51 2160 1652.89 2249.64 1509.53C2270.23 1476.46 2289.15 1434.09 2305.99 1381.12C2364.52 1197.46 2411.97 992.771 2463.89 788.209" stroke="url(#paint8_linear_18_263)" stroke-width="0.910388" stroke-miterlimit="10"/>
        <path d="M882.479 3682.26C989.932 3719.39 1043.79 3550.81 1104.61 3396.23C1134.41 3320.03 1167.91 3251.49 1210.02 3206.21C1334.75 3075.34 1420.52 3188.31 1544.87 2953.93C1579.19 2890.02 1599.78 2738.51 1624.39 2575.67C1685.13 2174.07 1794.6 1872.54 1895.27 1721.71C1902.14 1711.36 1908.61 1701.74 1914.68 1692.85C2018.24 1555.18 2131.69 1563.13 2221.41 1419.77C2242.02 1386.7 2260.57 1345.09 2277.45 1292.19C2335.32 1108.21 2382.95 903.867 2435.46 700.935" stroke="url(#paint9_linear_18_263)" stroke-width="0.910388" stroke-miterlimit="10"/>
    </g>
    <defs>
        <linearGradient id="paint0_linear_18_263" x1="1403.74" y1="1424.66" x2="1746.46" y2="1617.31" gradientUnits="userSpaceOnUse">
            <stop stop-color="white"/>
            <stop offset="1"/>
        </linearGradient>
        <linearGradient id="paint1_linear_18_263" x1="1433.03" y1="1512.27" x2="1768.43" y2="1700.48" gradientUnits="userSpaceOnUse">
            <stop stop-color="white"/>
            <stop offset="1"/>
        </linearGradient>
        <linearGradient id="paint2_linear_18_263" x1="1462.6" y1="1600.85" x2="1790.26" y2="1784.48" gradientUnits="userSpaceOnUse">
            <stop stop-color="white"/>
            <stop offset="1"/>
        </linearGradient>
        <linearGradient id="paint3_linear_18_263" x1="1491.95" y1="1688.62" x2="1812.29" y2="1867.83" gradientUnits="userSpaceOnUse">
            <stop stop-color="white"/>
            <stop offset="1"/>
        </linearGradient>
        <linearGradient id="paint4_linear_18_263" x1="1521.18" y1="1775.96" x2="1834.2" y2="1950.77" gradientUnits="userSpaceOnUse">
            <stop stop-color="white"/>
            <stop offset="1"/>
        </linearGradient>
        <linearGradient id="paint5_linear_18_263" x1="1550.7" y1="1864.28" x2="1856.17" y2="2034.62" gradientUnits="userSpaceOnUse">
            <stop stop-color="white"/>
            <stop offset="1"/>
        </linearGradient>
        <linearGradient id="paint6_linear_18_263" x1="1580.05" y1="1952.07" x2="1878.24" y2="2118.05" gradientUnits="userSpaceOnUse">
            <stop stop-color="white"/>
            <stop offset="1"/>
        </linearGradient>
        <linearGradient id="paint7_linear_18_263" x1="1609.73" y1="2040.99" x2="1900.39" y2="2202.53" gradientUnits="userSpaceOnUse">
            <stop stop-color="white"/>
            <stop offset="1"/>
        </linearGradient>
        <linearGradient id="paint8_linear_18_263" x1="1668.52" y1="2216.79" x2="1944.88" y2="2369.87" gradientUnits="userSpaceOnUse">
            <stop stop-color="white"/>
            <stop offset="1"/>
        </linearGradient>
        <linearGradient id="paint9_linear_18_263" x1="1639.1" y1="2128.79" x2="1922.61" y2="2286.06" gradientUnits="userSpaceOnUse">
            <stop stop-color="white"/>
            <stop offset="1"/>
        </linearGradient>
    </defs>
</svg>
